<?xml version="1.0" encoding="UTF-8"?>
<svg width="96px" height="96px" viewBox="0 0 96 96" version="1.1" xmlns="http://www.w3.org/2000/svg" xmlns:xlink="http://www.w3.org/1999/xlink">
    <title>Artboard Copy</title>
    <g id="Artboard-Copy" stroke="none" stroke-width="1" fill="none" fill-rule="evenodd">
        <circle id="Oval" fill="#242323" cx="48" cy="48" r="48"></circle>
        <g id="Group" transform="translate(21.000000, 27.000000)" fill="#FAF8F5">
            <polygon id="Fill-16" points="51.8573532 24.7034994 51.8573532 18.6186945 33.9768611 18.6186945 33.9768611 6.08480665 54 6.08480665 54 0 28 0 28 42 33.9768611 42 33.9768611 24.7034994"></polygon>
            <path d="M17.1125033,0 L17.1125033,29.264257 C17.1125033,31.3403042 16.8875005,33.1501938 16.1250002,34.4410677 C15.3874994,35.6787097 14.1125026,36.5171088 11.8000027,36.5171088 C9.15000278,36.5171088 7.72500282,35.5988606 6.92500308,34.2148303 C6.10000293,32.7908737 5.88750077,30.794679 5.88750077,28.5057043 L5.88750077,25.391637 L0,25.391637 L0,29.3174932 C0,33.2566558 1.06250108,36.4372658 3.08750166,38.6330815 C5.11250142,40.8289015 8.05000069,42 11.7000012,42 C16.1125004,42 18.9625011,40.3764284 20.6999999,38.0342245 C22.4250006,35.7053261 23,32.724338 23,30.0760492 L23,0 L17.5500034,0 L17.5500034,29.264257 C17.5500034,30.8345984 17.4249997,32.2984813 17.0125009,33.5361268 C17.4249997,32.2984813 17.5500034,30.8345984 17.5500034,29.264257 L17.5500034,0 L17.1125033,0 Z M0,29.5389836 C0,37.3898293 4.07922348,42 11.1038726,42 C16.8591554,42 19.7429575,39.0576212 21,35.5186394 C19.7429575,39.0576212 16.8591554,42 11.1038726,42 C4.09154723,42 0,37.3898293 0,29.5389836 L0,26 L0,29.5389836 Z" id="Fill-12"></path>
        </g>
    </g>
</svg>