<?xml version="1.0" encoding="UTF-8"?>
<svg width="96px" height="96px" viewBox="0 0 96 96" version="1.1" xmlns="http://www.w3.org/2000/svg" xmlns:xlink="http://www.w3.org/1999/xlink">
    <title>Artboard</title>
    <g id="Artboard" stroke="none" stroke-width="1" fill="none" fill-rule="evenodd">
        <g id="Group">
            <path d="M96,48 C96,74.5096714 74.5096714,96 48,96 C21.4903322,96 0,74.5096714 0,48 C0,21.4903358 21.4903322,0 48,0 C74.5096714,0 96,21.4903358 96,48 Z" id="Fill-11" fill="#242323"></path>
            <polygon id="Fill-16" fill="#FAF8F5" points="41.7638576 62.9399283 41.7638576 59.7526495 31.4481891 59.7526495 31.4481891 53.1872797 43 53.1872797 43 50 28 50 28 72 31.4481891 72 31.4481891 62.9399283"></polygon>
            <path d="M58.0741625,48 C62.7679421,48 65,45.9442688 65,42.8288839 C65,40.1868125 63.2488047,38.5054935 58.4832546,37.7001561 C54.9090916,37.113814 54.0119632,36.2307688 54.0119632,34.8037674 C54.0119632,33.3767656 55.1674666,32.4937204 57.3636386,32.4937204 C59.6746436,32.4937204 60.8229668,33.5180531 61.461723,36.0824173 L64.5550229,35.3477218 C63.772726,32.0133426 61.8349291,30 57.3708141,30 C53.0143548,30 50.7822982,32.0133444 50.7822982,34.9874404 C50.7822982,37.6648351 52.4545479,39.2755076 57.0406723,40.1161669 C60.7655524,40.7378313 61.8062196,41.4725268 61.8062196,42.8995277 C61.7703345,44.4748806 60.5789498,45.4638909 58.1172273,45.4638909 C54.8373229,45.4638909 53.6459326,43.7401879 53.0502389,41.394819 L50,41.9811607 C50.7392344,45.5415996 52.6698563,48 58.0741625,48 Z" id="Fill-14" fill="#FAF8F5"></path>
            <path d="M26.9282626,26 L26.9282626,41.3288965 C26.9282626,42.4163498 26.8108698,43.3643872 26.4130436,44.0405593 C26.0282605,44.6888479 25.3630448,45.1280094 24.1565232,45.1280094 C22.7739145,45.1280094 22.0304363,44.6470222 21.6130451,43.922054 C21.1826102,43.1761719 21.0717395,42.1305462 21.0717395,40.9315594 L21.0717395,39.3003813 L18,39.3003813 L18,41.3567821 C18,43.420153 18.5543484,45.0861868 19.6108704,46.236376 C20.667392,47.3865674 22.2000004,48 24.1043484,48 C26.4065219,48 27.8934788,47.1495577 28.8,45.922689 C29.7000003,44.7027899 30,43.1413199 30,41.754121 L30,26 L27.1565235,26 L27.1565235,41.3288965 C27.1565235,42.1514563 27.0913042,42.9182521 26.8760874,43.5665426 C27.0913042,42.9182521 27.1565235,42.1514563 27.1565235,41.3288965 L27.1565235,26 L26.9282626,26 Z M18.2217405,41.3567821 C18.2217405,45.3929043 20.3804348,47.7629944 24.0978259,47.7629944 C27.1434781,47.7629944 28.6695644,46.2503166 29.3347818,44.4309249 C28.6695644,46.2503166 27.1434781,47.7629944 24.0978259,47.7629944 C20.3869564,47.7629944 18.2217405,45.3929043 18.2217405,41.3567821 L18.2217405,39.5373896 L18.2217405,41.3567821 Z" id="Fill-12" fill="#FAF8F5"></path>
            <path d="M67.4421684,42.5383644 C67.4421684,45.6842119 68.9676623,48 72.4496269,48 C73.9751234,48 74.8644285,47.7837675 76,47.4210545 L75.6100696,44.5263172 C74.7207662,44.7774261 73.9751252,44.9587845 73.0926625,44.9587845 C71.2456481,44.9587845 70.5342039,43.9822476 70.5342039,42.0989232 L70.5342039,33.3798378 L75.8221414,33.3798378 L75.8221414,30.6664553 L70.5342039,30.6664553 L70.5342039,26 L67.4490078,26 L67.4490078,30.6664553 L65,30.6664553 L65,33.3798378 L67.4490078,33.3798378 L67.4490078,42.5383644 L67.4421684,42.5383644 Z" id="Fill-15" fill="#FAF8F5"></path>
            <path d="M45.8490933,47.5436576 L49,47.5436576 L49,30 L45.8490933,30 L45.8490933,40.4088524 C45.8490933,43.3424532 44.1094543,44.9939644 41.2100587,44.9939644 C38.1639476,44.9939644 37.1509072,42.8136813 37.1509072,40.4088524 L37.1509072,30 L34,30 L34,41.2346068 C34,44.9939625 35.5230544,48 39.9105725,48 C42.8798325,48 45.0945507,46.3847062 45.8211455,42.8136804 L45.8560779,42.8136804 L45.8560779,47.5436576 L45.8490933,47.5436576 Z" id="Fill-13" fill="#FAF8F5"></path>
            <path d="M50,52.6557673 L50,50 L46,50 L46,52.6557673 L50,52.6557673 Z M49.7120663,71.9930811 L49.7120663,55.2423753 L46.2412526,55.2423753 L46.2412526,72 L49.7120663,72 L49.7120663,71.9930811 Z" id="Fill-17" fill="#FAF8F5"></path>
            <polygon id="Fill-18" fill="#FAF8F5" points="63.4399133 72 67 72 67 71.9339392 61.3609342 64.1189105 66.8573268 56.0660604 66.8573268 56 63.5078541 56 59.1392819 62.8175079 54.6619975 56 51.1019109 56 51.1019109 56.0660604 56.6390662 63.775394 51 71.9339392 51 72 54.4513836 72 58.8199562 65.0767966"></polygon>
        </g>
    </g>
</svg>