<?xml version="1.0" encoding="UTF-8"?>
<svg width="116px" height="27px" viewBox="0 0 116 27" version="1.1" xmlns="http://www.w3.org/2000/svg" xmlns:xlink="http://www.w3.org/1999/xlink">
    <title>Artboard</title>
    <g id="Artboard" stroke="none" stroke-width="1" fill="none" fill-rule="evenodd">
        <g id="logo" transform="translate(-0.000000, 0.000000)" fill="#242323" fill-rule="nonzero">
            <path d="M5.87564,19.4832 C5.87564,21.7728 4.89636,23.1984 2.58172,23.1984 C1.69147,23.1984 1.24635,23.1552 0.400612,22.9824 L0,26.568 C1.02378,26.7408 1.91403,26.8272 3.16038,26.8272 C7.87869,26.8272 9.97078,23.8464 9.97078,19.5696 L9.97078,0.561601 L5.87564,0.561601 L5.87564,19.4832 Z" id="Path"></path>
            <path d="M28.0146,26.4816 L31.8872,26.4816 L31.8872,6.3072 L28.0146,6.3072 L28.0146,18.2736 C28.0146,21.6432 25.878,23.544 22.3171,23.544 C18.578,23.544 17.3317,21.0384 17.3317,18.2736 L17.3317,6.3072 L13.4591,6.3072 L13.4591,19.224 C13.4591,23.544 15.3286,27 20.7146,27 C24.3646,27 27.0799,25.1424 27.9701,21.0384 L28.0146,21.0384 L28.0146,26.4816 Z" id="Path"></path>
            <path d="M43.6924,27 C49.301,27 51.9717,24.5808 51.9717,20.9088 C51.9717,17.7984 49.8796,15.8112 44.182,14.8608 C39.9088,14.1696 38.8405,13.1328 38.8405,11.448 C38.8405,9.7632 40.2204,8.7264 42.8467,8.7264 C45.6064,8.7264 46.9863,9.936 47.743,12.96 L51.4376,12.096 C50.5028,8.1648 48.1881,5.7888 42.8467,5.7888 C37.6387,5.7888 34.968,8.1648 34.968,11.664 C34.968,14.8176 36.971,16.7184 42.446,17.712 C46.8973,18.4464 48.1436,19.3104 48.1436,20.9952 C48.0991,22.8528 46.6747,24.0192 43.7369,24.0192 C39.8198,24.0192 38.3954,21.9888 37.6832,19.224 L34.0332,19.9152 C34.9235,24.1056 37.2381,27 43.6924,27 Z" id="Path"></path>
            <path d="M55.7497,20.4768 C55.7497,24.2352 57.6637,27 62.0259,27 C63.94,27 65.0528,26.7408 66.4772,26.3088 L65.9875,22.8528 C64.8747,23.1552 63.94,23.3712 62.8272,23.3712 C60.5125,23.3712 59.6223,22.2048 59.6223,19.9584 L59.6223,9.5472 L66.2546,9.5472 L66.2546,6.3072 L59.6223,6.3072 L59.6223,0.734401 L55.7497,0.734401 L55.7497,6.3072 L52.6783,6.3072 L52.6783,9.5472 L55.7497,9.5472 L55.7497,20.4768 Z" id="Path"></path>
            <polygon id="Path" points="84.9203 15.8112 84.9203 12.0528 72.6794 12.0528 72.6794 4.32 86.3892 4.32 86.3892 0.561601 68.5842 0.561601 68.5842 26.4816 72.6794 26.4816 72.6794 15.8112"></polygon>
            <path d="M94.0321,3.1968 L94.0321,0 L89.6254,0 L89.6254,3.1968 L94.0321,3.1968 Z M93.7205,26.4816 L93.7205,6.3072 L89.8924,6.3072 L89.8924,26.4816 L93.7205,26.4816 Z" id="Shape"></path>
            <polygon id="Path" points="111.504 26.4816 116 26.4816 116 26.3952 108.878 16.5456 115.822 6.3936 115.822 6.3072 111.593 6.3072 106.074 14.904 100.421 6.3072 95.9249 6.3072 95.9249 6.3936 102.913 16.1136 95.7914 26.3952 95.7914 26.4816 100.154 26.4816 105.673 17.7552"></polygon>
        </g>
    </g>
</svg>