<?xml version="1.0" encoding="UTF-8"?>
<svg width="19px" height="19px" viewBox="0 0 19 19" version="1.1" xmlns="http://www.w3.org/2000/svg" xmlns:xlink="http://www.w3.org/1999/xlink">
    <title>Artboard</title>
    <g id="Artboard" stroke="none" stroke-width="1" fill="none" fill-rule="evenodd">
        <g id="external-arrow" transform="translate(-3.000000, -3.000000)" fill-rule="nonzero">
            <circle id="Oval" stroke="#242323" fill="#242323" transform="translate(12.500000, 12.500000) rotate(-45.000000) translate(-12.500000, -12.500000) " cx="12.5" cy="12.5" r="8.83883476"></circle>
            <path d="M8.17779145,16.131234 C7.96664275,16.3064012 7.93972292,16.6170547 8.11768182,16.8249119 C8.29564073,17.0328676 8.61106879,17.0593544 8.8222275,16.8840887 L8.17779145,16.131234 Z M16.9981573,9.91087753 C17.0216571,9.63996404 16.8176584,9.4016027 16.5424601,9.37849323 L12.0587876,9.00180986 C11.7836893,8.97870039 11.5415908,9.17958637 11.5180909,9.45049986 C11.4945911,9.72141335 11.6985898,9.95981407 11.9737881,9.98285461 L15.9592637,10.3177302 L15.6192657,14.2420077 C15.5957659,14.5128818 15.7997646,14.7512628 16.0748629,14.7744018 C16.3500613,14.7975409 16.5921598,14.5966746 16.6155596,14.325702 L16.9981573,9.91087753 Z M8.8222275,16.8840887 L16.8221584,10.2454578 L16.1777623,9.49257347 L8.17779145,16.131234 L8.8222275,16.8840887 Z" id="Shape" fill="#FAF8F4"></path>
        </g>
    </g>
</svg>