<?xml version="1.0" encoding="UTF-8"?>
<svg width="19px" height="19px" viewBox="0 0 19 19" version="1.1" xmlns="http://www.w3.org/2000/svg" xmlns:xlink="http://www.w3.org/1999/xlink">
    <title>Artboard</title>
    <g id="Artboard" stroke="none" stroke-width="1" fill="none" fill-rule="evenodd">
        <g id="internal-arrow" transform="translate(-3.000000, -3.000000)">
            <circle id="Oval" stroke="#242323" transform="translate(12.500000, 12.500000) rotate(-45.000000) translate(-12.500000, -12.500000) " cx="12.5" cy="12.5" r="8.83883476"></circle>
            <path d="M8.5,12.0247559 C8.22386,12.0247559 8,12.2374964 8,12.5000475 C8,12.7625036 8.22386,12.9753392 8.5,12.9753392 L8.5,12.0247559 Z M16.8536,12.8360787 C17.0488,12.6504298 17.0488,12.3495702 16.8536,12.1639213 L13.6716,9.13916539 C13.4763,8.95361154 13.1597,8.95361154 12.9645,9.13916539 C12.7692,9.3248143 12.7692,9.62576895 12.9645,9.8113228 L15.7929,12.5000475 L12.9645,15.1886772 C12.7692,15.374231 12.7692,15.6751857 12.9645,15.8608346 C13.1597,16.0463885 13.4763,16.0463885 13.6716,15.8608346 L16.8536,12.8360787 Z M8.5,12.9753392 L16.5,12.9753392 L16.5,12.0247559 L8.5,12.0247559 L8.5,12.9753392 Z" id="Shape" fill="#242323" fill-rule="nonzero"></path>
        </g>
    </g>
</svg>