<svg width="24" height="24" viewBox="0 0 24 24" fill="none" xmlns="http://www.w3.org/2000/svg">
<circle cx="12" cy="12" r="11.5" transform="rotate(90 12 12)" fill="#242323" stroke="#242323"/>
<path d="M17.8007 16.8643L14.8577 13.9178C16.3374 11.9918 16.1894 9.20993 14.4138 7.4486C13.4438 6.47743 12.1942 6 10.9282 6C9.66224 6 8.41274 6.47731 7.44271 7.4486C5.5191 9.37454 5.5191 12.5021 7.44271 14.4281C8.41271 15.3993 9.66233 15.8767 10.9282 15.8767C11.9805 15.8767 13.0327 15.5475 13.9041 14.8726L16.8635 17.8025C16.9951 17.9342 17.1594 18 17.3403 18C17.5047 18 17.6856 17.9342 17.817 17.8025C18.0637 17.5556 18.0637 17.1276 17.8006 16.8643L17.8007 16.8643ZM10.9447 14.5433C9.97472 14.5433 9.08683 14.1647 8.3963 13.4898C6.99874 12.0905 6.99874 9.8025 8.3963 8.38685C9.07042 7.71192 9.97472 7.33334 10.9447 7.33334C11.9147 7.33334 12.8026 7.71192 13.4931 8.38685C14.1837 9.06178 14.5454 9.96717 14.5454 10.9383C14.5454 11.9095 14.1672 12.7985 13.4931 13.4898C12.819 14.1812 11.8983 14.5433 10.9447 14.5433V14.5433Z" fill="#FAF8F4"/>
</svg>
